<?xml version="1.0" encoding="UTF-8" ?>
<!DOCTYPE svg PUBLIC "-//W3C//DTD SVG 1.1//EN" "http://www.w3.org/Graphics/SVG/1.1/DTD/svg11.dtd">
<svg width="1302pt" height="768pt" viewBox="0 0 1302 768" version="1.1" xmlns="http://www.w3.org/2000/svg">
<path fill="#ffffff" d=" M 0.00 0.00 L 1302.00 0.00 L 1302.00 768.00 L 0.00 768.00 L 0.00 0.00 Z" />
<path fill="#3b5262" d=" M 480.54 69.77 C 518.32 57.35 558.29 52.14 597.99 52.66 C 615.48 53.56 632.94 55.13 650.35 57.07 C 654.15 57.27 658.07 58.37 660.75 61.24 C 666.24 66.23 666.15 75.74 660.95 80.90 C 658.13 83.73 654.05 85.44 650.03 85.08 C 637.37 84.07 624.68 83.42 612.00 82.68 C 602.97 82.49 593.98 81.35 584.94 81.57 C 566.22 81.41 547.50 82.99 529.03 86.03 C 501.38 90.34 473.81 98.19 449.73 112.79 C 442.03 117.25 435.01 122.73 428.05 128.24 C 427.83 128.44 427.39 128.83 427.17 129.03 C 419.76 124.15 412.01 119.84 404.06 115.92 C 425.10 94.35 452.19 79.44 480.54 69.77 Z" />
<path fill="#59868b" d=" M 165.11 111.19 C 200.62 101.60 237.27 96.67 273.97 94.99 C 317.92 93.12 363.36 97.04 403.74 115.75 C 399.16 120.93 394.57 126.12 390.71 131.87 L 390.36 131.70 C 360.87 118.00 328.26 112.78 296.04 110.85 C 250.49 108.93 204.59 111.67 159.98 121.37 C 140.60 125.56 121.46 131.23 103.39 139.46 C 91.23 145.28 79.03 151.60 69.23 161.03 C 69.17 157.07 73.58 155.37 75.89 152.78 C 101.75 131.98 133.30 119.62 165.11 111.19 Z" />
<path fill="#4e7e82" d=" M 403.74 115.75 L 404.06 115.92 C 412.01 119.84 419.76 124.15 427.17 129.03 C 422.25 133.97 417.70 139.27 412.73 144.17 C 405.73 139.49 398.33 135.45 390.71 131.87 C 394.57 126.12 399.16 120.93 403.74 115.75 Z" />
<path fill="#59868b" d=" M 427.17 129.03 C 427.39 128.83 427.83 128.44 428.05 128.24 C 428.34 129.69 429.37 130.71 430.58 131.47 C 451.85 146.29 469.31 166.98 478.84 191.21 C 487.69 213.96 491.48 238.84 488.48 263.13 C 483.90 301.85 468.11 338.26 448.80 371.78 C 442.72 364.60 437.21 356.97 431.39 349.59 L 431.20 349.31 C 439.82 335.41 447.17 320.71 453.33 305.56 C 461.58 284.38 467.67 261.89 466.98 238.99 C 465.76 214.04 457.78 188.81 441.43 169.58 C 433.37 159.72 423.58 151.37 412.99 144.34 L 412.73 144.17 C 417.70 139.27 422.25 133.97 427.17 129.03 Z" />
<path fill="#3b5262" d=" M 390.36 131.70 L 390.71 131.87 C 398.33 135.45 405.73 139.49 412.73 144.17 L 412.99 144.34 C 395.04 166.70 384.55 195.29 385.20 224.05 C 385.02 241.72 388.95 259.12 393.59 276.07 C 401.07 302.73 415.37 326.83 431.20 349.31 L 431.39 349.59 C 426.80 356.62 422.45 363.81 417.71 370.75 L 417.49 370.49 C 403.61 353.31 391.56 334.60 381.86 314.74 C 371.21 292.85 364.87 269.09 361.34 245.07 C 358.38 224.15 359.51 202.57 365.49 182.26 C 370.39 163.98 379.26 146.96 390.36 131.70 Z" />
<path fill="#ffffff" d=" M 412.99 144.34 C 423.58 151.37 433.37 159.72 441.43 169.58 C 457.78 188.81 465.76 214.04 466.98 238.99 C 467.67 261.89 461.58 284.38 453.33 305.56 C 447.17 320.71 439.82 335.41 431.20 349.31 C 415.37 326.83 401.07 302.73 393.59 276.07 C 388.95 259.12 385.02 241.72 385.20 224.05 C 384.55 195.29 395.04 166.70 412.99 144.34 Z" />
<path fill="#59868b" d=" M 603.32 195.13 C 604.79 190.35 606.51 185.46 609.91 181.68 C 609.63 185.57 607.23 188.81 606.27 192.51 C 605.03 196.94 604.30 201.50 603.26 205.98 C 606.24 203.25 609.68 200.09 614.07 200.63 C 620.15 202.32 622.82 208.78 624.90 214.13 C 629.28 227.12 631.88 240.62 634.14 254.11 C 634.50 255.87 634.42 257.82 635.29 259.43 C 640.06 260.32 644.95 260.43 649.80 260.55 C 651.26 262.21 652.11 264.62 650.00 266.18 C 645.36 266.74 640.73 265.38 636.09 265.29 C 637.96 281.87 639.93 298.45 641.61 315.05 C 642.39 319.52 635.39 321.56 633.36 317.76 C 629.04 310.64 628.95 302.04 627.88 294.02 C 627.23 284.12 625.98 274.28 625.35 264.38 C 614.66 262.93 603.89 261.95 593.37 259.52 C 589.64 278.71 586.49 298.02 582.44 317.15 C 581.64 320.71 580.89 324.66 577.98 327.15 C 576.16 328.18 574.28 327.02 572.60 326.33 C 570.70 319.63 572.31 312.71 572.66 305.92 C 573.98 289.38 577.88 273.22 581.91 257.18 C 578.15 256.19 572.68 256.11 571.63 251.42 C 574.84 253.75 578.64 254.92 582.52 255.58 C 585.79 245.97 588.62 236.20 592.61 226.85 C 594.45 222.24 597.01 217.89 598.21 213.04 C 599.67 207.00 601.53 201.07 603.32 195.13 Z" />
<path fill="#59868b" d=" M 870.90 187.69 C 872.40 186.37 874.04 185.25 875.84 184.36 C 875.19 185.66 874.54 186.95 873.88 188.23 C 886.24 188.28 898.61 188.03 910.97 188.44 C 913.34 188.49 915.68 188.98 918.01 189.48 C 917.62 190.83 917.99 192.79 916.31 193.33 C 907.89 192.47 899.45 191.65 890.99 191.37 C 884.29 190.86 877.58 189.94 870.86 190.41 C 867.21 212.48 870.35 234.97 874.92 256.65 C 884.10 256.82 893.25 256.06 902.41 255.53 C 902.52 257.15 902.57 258.78 902.59 260.41 C 893.75 260.86 884.89 260.59 876.04 260.50 C 879.21 273.03 883.30 285.62 890.59 296.43 C 893.92 301.38 898.76 306.18 904.99 306.77 C 910.60 306.76 915.78 304.23 921.07 302.70 C 922.15 303.05 923.23 303.40 924.33 303.75 C 925.22 305.78 926.33 308.52 924.04 310.10 C 920.66 312.05 916.84 313.05 913.21 314.42 C 907.60 316.53 901.12 316.12 895.91 313.12 C 887.84 308.95 882.86 300.91 878.97 293.02 C 874.07 282.73 871.25 271.59 869.19 260.43 C 866.22 260.20 863.26 259.92 860.30 259.65 C 862.22 268.72 864.82 277.76 865.19 287.07 C 864.88 290.61 864.77 295.28 861.06 297.05 C 859.00 298.36 856.47 297.47 854.45 296.58 C 848.96 294.05 844.43 289.95 839.84 286.11 C 824.57 273.11 810.86 258.40 798.17 242.90 C 805.53 268.55 812.59 294.31 818.55 320.32 C 817.23 321.90 815.62 324.34 813.21 323.21 C 810.28 321.67 809.76 317.95 808.78 315.10 C 803.25 292.54 799.04 269.69 794.18 246.98 C 792.78 241.46 792.78 235.43 789.67 230.50 C 784.45 222.00 779.54 213.04 777.79 203.11 C 777.32 201.39 778.03 199.70 778.44 198.06 C 779.26 198.19 780.90 198.44 781.71 198.57 C 781.10 198.89 779.88 199.52 779.27 199.84 C 779.35 208.61 784.99 215.66 788.83 223.11 C 787.86 214.08 784.27 205.58 783.10 196.58 C 783.57 196.93 784.51 197.65 784.98 198.00 C 787.43 208.20 791.24 218.01 794.08 228.10 C 794.88 231.45 797.14 234.11 799.42 236.59 C 812.76 251.88 827.69 265.71 843.35 278.60 C 848.02 282.38 852.61 286.30 857.78 289.41 C 857.94 278.81 853.90 268.80 851.14 258.72 C 847.75 258.63 844.24 258.05 841.77 255.52 C 844.74 255.83 847.66 256.46 850.62 256.90 C 844.66 235.96 836.60 215.57 832.75 194.07 C 832.53 192.51 832.03 190.63 833.44 189.44 C 834.78 187.56 837.34 188.48 839.30 188.37 C 844.08 199.33 846.98 210.97 850.37 222.40 C 853.81 233.93 856.68 245.62 859.73 257.25 C 862.69 257.38 865.65 257.15 868.60 256.79 C 865.51 238.90 864.55 220.53 866.75 202.48 C 867.26 198.09 868.48 193.83 869.88 189.66 C 867.48 189.49 865.10 189.33 862.71 189.17 C 862.47 188.74 861.99 187.87 861.76 187.43 C 864.79 187.58 867.84 187.73 870.90 187.69 Z" />
<path fill="#59868b" d=" M 757.70 191.55 C 758.15 191.45 759.05 191.25 759.50 191.15 C 758.49 204.52 761.29 217.72 763.03 230.90 C 767.81 260.73 770.47 290.87 776.20 320.55 C 776.53 322.77 777.28 325.58 775.16 327.19 C 773.38 329.13 770.81 327.90 768.72 327.34 C 767.63 324.01 766.97 320.57 766.50 317.11 C 763.79 301.33 762.48 285.36 761.50 269.40 C 748.73 269.56 736.01 268.29 723.25 268.14 C 724.88 286.82 726.73 305.51 730.20 323.95 C 731.53 327.29 727.15 330.97 724.16 328.83 C 722.65 328.17 722.37 326.46 722.03 325.06 C 718.42 306.11 717.95 286.77 717.30 267.55 C 708.79 267.36 700.15 265.44 691.73 267.40 C 691.71 266.95 691.67 266.04 691.66 265.59 C 699.97 264.98 708.30 264.57 716.64 264.43 C 717.53 262.45 716.80 260.24 716.78 258.17 C 716.08 244.72 715.18 231.29 714.53 217.84 C 714.38 213.37 713.98 208.83 715.00 204.42 C 716.33 209.87 716.29 215.51 717.05 221.05 C 718.94 235.52 720.94 249.98 722.74 264.46 C 735.47 264.20 748.22 264.67 760.93 263.67 C 760.23 239.62 756.27 215.66 757.70 191.55 Z" />
<path fill="#58868b" d=" M 652.44 195.74 C 659.71 192.94 667.83 192.21 675.50 193.68 C 681.17 194.82 686.78 198.21 689.22 203.65 C 692.28 210.49 691.92 218.45 689.56 225.45 C 685.98 236.75 679.24 246.71 671.68 255.72 C 670.56 256.84 670.01 258.35 670.45 259.92 C 673.05 276.55 674.58 293.32 677.48 309.90 C 678.13 314.72 679.71 319.64 678.35 324.49 C 676.45 324.55 674.57 324.62 672.69 324.69 C 669.45 318.78 669.38 311.93 668.35 305.44 C 666.44 291.61 666.33 277.61 664.59 263.78 C 661.65 266.03 658.87 269.46 654.87 269.40 C 653.25 268.43 652.09 266.73 652.61 264.78 C 656.25 261.16 660.63 258.20 663.58 253.92 C 663.89 250.59 663.50 247.25 663.33 243.92 C 662.26 232.65 661.74 221.33 660.78 210.05 C 660.88 205.16 660.62 199.84 663.35 195.54 C 663.97 199.08 662.15 202.50 662.80 206.04 C 664.26 220.19 666.74 234.21 668.76 248.29 C 675.85 240.05 682.33 230.92 685.50 220.41 C 687.00 214.71 687.38 208.07 684.10 202.90 C 680.15 197.62 673.27 195.83 667.00 195.50 C 662.59 195.30 658.13 195.70 653.88 196.86 C 651.17 197.53 650.03 200.30 648.70 202.42 C 647.62 199.50 649.66 196.66 652.44 195.74 Z" />
<path fill="#ffffff" d=" M 596.28 245.24 C 600.97 232.75 606.26 220.38 613.27 209.00 C 616.54 213.49 617.82 218.99 619.12 224.28 C 621.63 235.86 623.25 247.61 624.62 259.36 C 614.46 258.80 604.33 257.96 594.19 257.16 C 594.28 253.10 594.78 249.04 596.28 245.24 Z" />
<path fill="#4e7e82" d=" M 431.39 349.59 C 437.21 356.97 442.72 364.60 448.80 371.78 L 448.90 371.90 C 444.52 378.87 440.06 385.80 436.13 393.04 L 435.93 392.83 C 429.51 385.76 423.55 378.29 417.71 370.75 C 422.45 363.81 426.80 356.62 431.39 349.59 Z" />
<path fill="#59868b" d=" M 417.49 370.49 L 417.71 370.75 C 423.55 378.29 429.51 385.76 435.93 392.83 C 414.73 425.36 390.34 455.66 365.19 485.20 C 318.95 539.46 267.46 589.06 213.19 635.23 C 201.15 645.01 188.64 654.21 176.62 664.03 C 177.27 664.17 178.58 664.45 179.23 664.59 C 177.81 664.48 176.39 664.44 174.98 664.40 C 174.69 665.21 174.40 666.03 174.11 666.86 C 170.19 668.29 166.25 670.31 161.94 669.73 C 154.26 669.59 148.35 663.01 146.37 656.02 C 146.12 650.55 147.79 644.71 152.04 641.02 C 165.12 629.81 177.95 618.31 190.54 606.56 C 221.13 579.85 251.75 553.16 281.01 525.00 C 307.43 500.11 332.49 473.80 356.80 446.85 C 370.71 431.30 384.27 415.44 397.09 398.96 C 404.12 389.65 411.49 380.51 417.49 370.49 Z" />
<path fill="#3b5262" d=" M 436.13 393.04 C 440.06 385.80 444.52 378.87 448.90 371.90 C 470.51 397.92 494.37 421.92 517.05 446.99 C 529.39 460.71 541.86 474.41 552.46 489.57 C 563.76 505.18 573.27 522.55 577.18 541.57 C 580.91 560.12 577.36 579.77 568.30 596.29 C 560.23 610.58 548.61 622.62 535.52 632.41 C 506.69 654.48 472.66 668.66 437.97 678.63 C 408.00 686.79 377.05 691.19 346.03 692.26 C 323.23 692.47 300.48 690.63 277.84 688.09 C 242.73 684.14 207.88 677.33 174.11 666.86 C 174.40 666.03 174.69 665.21 174.98 664.40 C 176.39 664.44 177.81 664.48 179.23 664.59 C 217.56 673.02 256.73 677.49 295.94 678.69 C 325.42 680.35 355.14 678.91 384.21 673.57 C 409.64 669.14 434.71 662.35 458.62 652.56 C 475.14 645.81 491.38 638.15 506.37 628.40 C 519.12 620.17 531.49 611.08 541.82 599.90 C 552.30 588.57 559.71 573.73 559.69 558.06 C 560.31 545.58 555.92 533.52 550.29 522.59 C 542.27 507.06 531.00 493.54 519.51 480.49 C 492.46 450.64 462.90 423.15 436.13 393.04 Z" />
<path fill="#ffffff" d=" M 365.19 485.20 C 390.34 455.66 414.73 425.36 435.93 392.83 L 436.13 393.04 C 462.90 423.15 492.46 450.64 519.51 480.49 C 531.00 493.54 542.27 507.06 550.29 522.59 C 555.92 533.52 560.31 545.58 559.69 558.06 C 559.71 573.73 552.30 588.57 541.82 599.90 C 531.49 611.08 519.12 620.17 506.37 628.40 C 491.38 638.15 475.14 645.81 458.62 652.56 C 434.71 662.35 409.64 669.14 384.21 673.57 C 355.14 678.91 325.42 680.35 295.94 678.69 C 256.73 677.49 217.56 673.02 179.23 664.59 C 178.58 664.45 177.27 664.17 176.62 664.03 C 188.64 654.21 201.15 645.01 213.19 635.23 C 267.46 589.06 318.95 539.46 365.19 485.20 Z" />
<path fill="#3b5263" d=" M 1115.55 490.02 C 1116.51 488.67 1118.30 488.30 1119.71 487.57 C 1121.07 488.48 1122.39 489.47 1123.66 490.54 C 1126.14 513.94 1127.06 537.46 1128.40 560.94 C 1128.29 570.57 1129.31 580.45 1126.65 589.84 C 1126.14 592.41 1123.98 594.00 1122.14 595.63 C 1113.26 592.91 1108.92 583.97 1103.81 576.99 C 1093.48 560.28 1083.00 543.63 1073.59 526.37 C 1073.53 542.24 1073.62 558.11 1073.60 573.99 C 1073.70 581.41 1073.28 588.89 1074.55 596.25 C 1076.03 597.95 1077.70 600.87 1075.19 602.52 C 1071.15 604.00 1068.29 599.47 1067.72 596.09 C 1066.94 588.76 1067.48 581.39 1067.59 574.05 C 1068.55 558.02 1069.60 541.99 1070.70 525.97 C 1071.99 517.63 1064.27 511.15 1064.64 502.89 C 1065.20 503.52 1065.76 504.16 1066.34 504.81 C 1066.43 505.39 1066.60 506.54 1066.69 507.12 C 1068.28 510.44 1069.82 513.79 1071.34 517.15 C 1071.62 512.80 1072.19 508.48 1072.65 504.15 C 1073.12 504.20 1074.05 504.30 1074.52 504.35 C 1073.20 508.77 1073.56 513.41 1073.51 517.95 C 1073.26 520.84 1075.08 523.24 1076.50 525.57 C 1085.23 539.07 1094.70 552.07 1103.68 565.41 C 1109.17 573.27 1114.21 581.60 1121.19 588.27 C 1122.17 582.84 1122.54 577.29 1121.83 571.80 C 1121.47 557.83 1119.45 543.97 1118.45 530.03 C 1117.34 519.37 1116.71 508.66 1115.48 498.00 C 1115.33 495.36 1114.72 492.59 1115.55 490.02 Z" />
<path fill="#65767d" d=" M 1171.52 494.63 C 1175.09 493.12 1178.89 492.21 1182.80 492.33 C 1182.77 492.79 1182.71 493.71 1182.68 494.18 C 1179.63 494.39 1176.44 494.50 1173.88 496.35 C 1173.09 495.76 1172.30 495.19 1171.52 494.63 Z" />
<path fill="#3b5262" d=" M 1163.32 496.68 C 1164.04 493.14 1169.11 492.18 1171.52 494.63 C 1172.30 495.19 1173.09 495.76 1173.88 496.35 C 1180.18 501.16 1186.89 505.93 1190.87 512.98 C 1197.37 523.99 1198.11 537.25 1197.66 549.72 C 1197.15 562.29 1194.78 574.78 1190.84 586.72 C 1188.54 593.79 1185.51 600.85 1180.44 606.39 C 1176.37 610.51 1170.98 614.01 1164.98 613.78 C 1156.70 614.30 1149.28 608.21 1146.28 600.81 C 1143.16 592.97 1143.04 584.34 1143.58 576.04 C 1144.70 563.48 1147.88 551.24 1150.94 539.05 C 1154.20 526.61 1158.35 514.27 1164.69 503.03 C 1163.76 501.05 1162.60 498.93 1163.32 496.68 Z" />
<path fill="#3b5262" d=" M 658.71 509.76 C 660.96 504.34 663.83 498.68 669.09 495.62 C 668.10 498.80 665.27 500.83 663.76 503.72 C 660.35 509.94 659.42 517.07 658.37 523.97 C 656.44 536.86 656.41 549.92 655.95 562.92 C 656.32 578.93 658.21 595.17 663.77 610.29 C 666.29 616.28 669.70 623.23 676.42 625.21 C 681.08 625.59 685.17 622.39 688.05 619.03 C 693.82 612.16 697.19 603.64 699.72 595.12 C 705.06 576.02 706.61 555.27 701.14 536.02 C 698.94 527.18 692.68 519.51 684.38 515.72 C 679.10 513.20 673.09 513.71 667.54 512.28 C 664.59 510.65 665.23 505.62 668.53 504.71 C 679.28 503.56 690.75 505.61 699.23 512.70 C 709.59 520.50 713.49 533.68 715.09 545.99 C 717.11 565.71 714.45 585.92 707.20 604.39 C 703.75 613.12 699.17 621.68 692.15 628.07 C 687.57 632.37 681.12 635.15 674.79 634.21 C 667.67 632.82 662.29 627.17 658.90 621.06 C 653.49 611.21 651.45 599.93 650.31 588.88 C 648.09 571.57 649.99 554.07 652.49 536.91 C 653.96 527.74 655.32 518.45 658.71 509.76 Z" />
<path fill="#3b5262" d=" M 803.45 500.46 C 804.81 498.48 806.31 495.58 809.22 496.28 C 807.08 498.46 805.04 500.75 803.66 503.51 C 804.75 503.41 806.92 503.20 808.01 503.10 C 817.71 501.14 827.62 499.73 837.53 500.75 C 837.64 501.77 837.76 502.80 837.88 503.83 C 827.23 502.85 816.49 503.13 805.92 504.86 C 804.85 505.18 803.78 505.50 802.72 505.81 C 800.13 517.50 799.56 529.50 799.08 541.43 C 798.21 549.94 799.33 558.44 799.50 566.95 C 800.36 579.03 802.79 591.30 808.96 601.87 C 814.74 592.11 822.14 582.93 831.80 576.79 C 837.27 573.18 844.52 571.42 850.70 574.29 C 855.48 576.47 857.45 582.10 857.21 587.05 C 856.63 594.65 853.28 601.80 848.81 607.88 C 842.99 615.44 833.86 621.22 824.03 620.61 C 819.68 620.58 815.60 618.88 811.94 616.65 C 809.97 620.58 808.79 624.85 806.87 628.79 C 804.70 632.14 798.65 629.97 799.27 625.97 C 800.20 620.37 802.29 615.00 804.67 609.87 C 796.07 598.18 793.42 583.27 793.25 569.06 C 792.81 553.94 794.23 538.85 796.60 523.93 C 797.97 515.91 799.21 507.57 803.45 500.46 Z" />
<path fill="#687580" d=" M 730.23 502.70 C 732.08 502.09 734.00 501.65 735.97 501.70 C 747.39 501.62 758.83 500.72 770.24 501.49 C 760.67 501.75 751.06 501.54 741.53 502.61 C 752.51 504.10 763.80 502.82 774.57 505.65 C 766.70 505.31 758.86 504.28 750.97 504.31 C 744.59 504.36 738.08 502.79 731.81 504.53 C 731.42 504.07 730.63 503.16 730.23 502.70 Z" />
<path fill="#3b5360" d=" M 741.53 502.61 C 751.06 501.54 760.67 501.75 770.24 501.49 C 774.07 501.77 778.37 501.43 781.65 503.79 C 781.27 504.49 780.52 505.89 780.14 506.59 C 778.27 506.35 776.40 506.10 774.57 505.65 C 763.80 502.82 752.51 504.10 741.53 502.61 Z" />
<path fill="#3b5262" d=" M 1013.90 507.31 C 1014.76 504.05 1018.31 501.95 1021.47 503.60 C 1029.97 509.55 1038.56 515.85 1044.40 524.60 C 1053.93 538.69 1058.68 556.08 1057.23 573.06 C 1056.02 583.72 1052.77 594.16 1047.75 603.64 C 1044.04 610.37 1039.32 616.78 1032.79 620.99 C 1026.05 625.64 1017.01 628.38 1009.16 624.95 C 999.89 620.78 992.16 612.98 988.67 603.37 C 983.93 590.83 984.95 577.02 986.74 563.99 C 989.15 548.87 993.49 533.97 1000.28 520.22 C 1003.12 514.53 1007.35 508.80 1013.90 507.31 Z" />
<path fill="#ffffff" d=" M 1153.90 553.62 C 1156.76 536.82 1159.97 519.86 1167.05 504.23 C 1172.55 509.66 1179.19 514.47 1182.21 521.86 C 1186.42 531.96 1186.76 543.16 1186.42 553.95 C 1185.64 566.25 1183.81 578.62 1179.52 590.23 C 1177.43 595.86 1174.22 601.64 1168.60 604.37 C 1164.30 606.57 1158.95 604.47 1156.14 600.86 C 1153.47 597.37 1152.50 592.96 1151.81 588.72 C 1150.39 576.99 1152.19 565.22 1153.90 553.62 Z" />
<path fill="#3b5263" d=" M 733.38 507.28 C 733.85 507.27 734.78 507.26 735.25 507.25 C 734.96 515.63 737.00 523.81 737.91 532.09 C 738.78 539.28 739.60 546.48 740.62 553.66 C 755.00 554.14 769.27 552.11 783.51 550.37 C 783.60 551.72 783.71 553.09 783.84 554.45 C 769.78 556.67 755.37 557.37 741.21 555.70 C 741.79 564.44 743.70 573.03 745.65 581.55 C 747.49 588.42 749.45 595.51 753.70 601.33 C 756.63 605.48 761.97 608.25 767.08 607.20 C 772.32 605.76 776.93 602.76 781.98 600.86 C 784.28 600.03 787.14 602.37 786.62 604.87 C 786.80 607.43 783.88 608.19 782.10 609.18 C 776.26 611.54 770.60 615.43 764.02 614.77 C 754.40 614.67 747.14 606.61 743.82 598.24 C 738.60 584.64 737.17 569.94 736.22 555.51 C 732.96 554.65 728.86 555.18 726.59 552.23 C 729.65 552.66 732.69 553.17 735.75 553.64 C 735.56 538.15 733.91 522.74 733.38 507.28 Z" />
<path fill="#3b5263" d=" M 887.77 507.30 C 888.22 507.28 889.12 507.22 889.57 507.19 C 888.07 514.03 887.49 521.04 887.55 528.03 C 887.12 548.02 886.11 568.00 886.73 587.99 C 887.22 595.35 887.98 602.69 888.68 610.02 C 889.08 613.91 882.85 614.88 881.80 611.22 C 879.05 593.26 880.42 575.01 881.94 557.00 C 883.64 540.41 884.62 523.71 887.77 507.30 Z" />
<path fill="#3b5262" d=" M 935.37 508.36 C 935.63 508.34 936.17 508.31 936.44 508.29 C 936.72 509.33 937.02 510.39 937.33 511.45 C 945.92 511.57 954.90 510.22 963.22 512.85 C 964.59 515.96 961.07 516.02 959.01 515.63 C 951.85 514.47 944.58 514.16 937.34 514.36 C 942.85 529.00 946.36 544.38 948.51 559.87 C 951.18 578.41 952.00 597.47 948.38 615.95 C 946.16 627.13 941.70 638.31 933.48 646.46 C 926.10 653.24 914.44 656.71 905.14 651.89 C 899.55 649.13 896.94 643.19 893.82 638.18 C 892.34 635.62 890.07 632.66 891.63 629.60 C 893.07 627.63 896.30 626.91 898.08 628.89 C 902.24 633.81 904.14 640.86 909.92 644.26 C 916.82 646.09 924.50 643.44 929.05 637.99 C 935.65 630.34 939.10 620.51 941.13 610.74 C 943.97 596.37 945.07 581.59 943.74 566.98 C 943.53 555.92 942.16 544.92 940.30 534.03 C 939.20 527.42 937.15 521.01 936.27 514.38 C 929.82 512.86 923.12 513.61 916.57 513.30 C 916.51 512.84 916.40 511.94 916.34 511.48 C 922.67 511.54 929.00 511.69 935.33 511.43 C 935.34 510.66 935.36 509.13 935.37 508.36 Z" />
<path fill="#ffffff" d=" M 1003.28 519.47 C 1005.20 514.81 1008.44 509.97 1013.86 509.20 C 1016.79 513.53 1021.40 516.23 1025.00 519.95 C 1043.34 535.83 1051.63 562.73 1044.65 586.07 C 1041.85 596.15 1037.47 606.46 1029.13 613.18 C 1024.36 616.95 1017.68 619.98 1011.70 617.27 C 1004.53 613.93 998.44 607.97 995.53 600.56 C 991.81 591.56 991.34 581.60 991.66 571.99 C 992.75 554.03 996.18 536.06 1003.28 519.47 Z" />
<path fill="#ffffff" d=" M 839.56 582.28 C 841.93 580.95 844.72 581.53 847.30 581.64 C 849.41 587.26 846.80 593.20 844.27 598.23 C 840.31 605.59 832.92 612.55 823.98 611.85 C 821.03 611.96 818.39 610.53 815.85 609.25 C 818.00 604.24 821.12 599.74 824.45 595.46 C 828.58 590.18 833.47 585.25 839.56 582.28 Z" />
</svg>
